<svg width="278" height="44" viewBox="0 0 278 44" fill="none" xmlns="http://www.w3.org/2000/svg">
<path d="M20.3753 41.5294C20.2439 41.5294 20.0834 41.4853 19.9812 41.397C19.6747 41.1764 19.6163 40.7353 19.8353 40.4411C23.2798 35.6911 28.5342 28.3676 28.8844 27.6617C29.3807 26.7058 29.585 25.8676 29.4099 25.3382C29.3369 25.1029 29.191 24.9264 28.9428 24.8088C28.0379 24.3382 26.7389 24.2794 25.7756 25.5C23.7906 27.9853 23.3965 28.4853 20.9591 28.4705C19.4996 28.4705 18.2735 27.9558 17.427 27.0735C16.4053 26 15.9237 24.397 15.9674 22.2794C16.055 19 17.6897 16.3529 20.1418 15.5C22.0976 14.8235 25.148 15.9558 26.5784 17.4117L26.8411 17.6911C27.4687 18.3382 28.1109 19 28.5342 18.9558C28.8115 18.9117 29.191 18.8088 29.4391 18.4264C29.7456 18 29.804 17.3382 29.6434 16.5147C29.3515 15.0441 27.2498 12.6029 25.4107 12C23.5863 11.4117 20.6672 10.4705 17.0621 12.7353C11.6326 16.147 12.1288 22.2205 12.1434 22.4853C12.1872 22.8529 11.8953 23.2058 11.5304 23.2205C11.1509 23.25 10.8298 22.9705 10.8007 22.6029C10.7715 22.3088 10.1876 15.4264 16.3615 11.5588C20.492 8.95584 23.9074 10.0588 25.7464 10.647C27.9795 11.3676 30.5921 14.1617 31.0008 16.2205C31.3073 17.75 30.9278 18.6764 30.5629 19.1911C30.1397 19.7794 29.4829 20.1617 28.7239 20.2794C27.6292 20.4117 26.7827 19.5441 25.8778 18.6176L25.6151 18.3529C24.389 17.1029 21.9078 16.3235 20.5942 16.7647C18.6822 17.4264 17.3978 19.6029 17.3248 22.2794C17.281 24.0147 17.6313 25.3088 18.4049 26.0882C19.0033 26.7205 19.879 27.0441 20.9737 27.0588C22.7106 27.0882 22.7835 27.0294 24.6664 24.6764C26.2135 22.7205 28.2714 22.8823 29.585 23.5441C30.1397 23.8382 30.5337 24.2941 30.7089 24.897C31.0008 25.7941 30.7819 26.9558 30.0813 28.2794C29.5558 29.2941 21.8056 40 20.9299 41.2206C20.7986 41.397 20.5942 41.5 20.3899 41.5V41.5294H20.3753Z" fill="#FAAE2B"/>
<path d="M6.36363 41.5295C5.98415 41.5295 5.67764 41.2206 5.67764 40.8383V8.02947C5.67764 7.92653 5.60467 5.25006 7.83777 4.61771C9.95412 4.01477 11.5012 5.64712 11.5596 5.73536C11.8223 6.01477 11.8077 6.45594 11.5304 6.70594C11.2531 6.97065 10.8298 6.95594 10.5671 6.67653C10.5087 6.61771 9.48706 5.57359 8.20266 5.94124C7.00583 6.27947 7.03502 7.94124 7.03502 8.00006V40.8383C7.03502 41.2206 6.72852 41.5295 6.34903 41.5295H6.36363Z" fill="#FAAE2B"/>
<path d="M7.02043 21.0882L5.72144 20.6617C8.1005 13.25 10.9904 4.36761 11.0926 4.13232C11.7056 2.89702 13.063 1.79408 15.0625 2.42643C17.2665 3.11761 17.3686 5.30879 17.1059 6.36761L14.362 15.25L13.063 14.8382L15.7923 5.99996C15.8215 5.86761 16.1572 4.20585 14.6685 3.73526C13.3403 3.32349 12.6543 4.05879 12.3186 4.73526C12.1726 5.13232 9.0492 14.7353 7.00584 21.0882H7.02043Z" fill="#FAAE2B"/>
<path d="M5.72148 21.1029C4.59763 17.7794 2.87537 12.7499 2.80239 12.5294C2.59805 11.9852 2.74401 10.2941 3.50297 9.35288C4.26194 8.41171 5.89663 8.27935 6.08637 8.26465L6.17394 9.6323C5.77987 9.66171 4.86035 9.83818 4.55385 10.2058C4.14517 10.7058 4.02841 11.7941 4.0722 12.0588C4.17436 12.3529 6.88912 20.2941 6.99129 20.6323L5.69229 21.0735L5.72148 21.1029Z" fill="#FAAE2B"/>
<path d="M47.012 23.5441C47.012 16.2794 52.4123 10.75 60.2063 10.75C64.7017 10.75 68.3068 12.6176 70.7004 15.75L66.818 19.1029C65.4314 17.0294 63.3151 15.75 60.1917 15.75C55.5503 15.75 52.1934 19.1029 52.1934 23.5294C52.1934 27.9559 55.5649 31.3088 60.1917 31.3088C63.3151 31.3088 65.4314 30.0441 66.818 28L70.7004 31.3088C68.3068 34.4559 64.7017 36.3088 60.2063 36.3088C52.4123 36.2941 47.012 30.7647 47.012 23.5147V23.5441Z" fill="#04332D"/>
<path d="M81.5594 35.8677V11.2059H86.6533V35.8677H81.5594Z" fill="#04332D"/>
<path d="M98.4319 35.8677V11.2059H103.555L115.348 27.4412V11.2059H120.442V35.8677H115.348L103.54 19.6324V35.8677H98.4319Z" fill="#04332D"/>
<path d="M131.053 23.5441C131.053 16.2794 136.453 10.75 144.247 10.75C148.742 10.75 152.348 12.6176 154.741 15.75L150.859 19.1029C149.472 17.0294 147.356 15.75 144.232 15.75C139.591 15.75 136.234 19.1029 136.234 23.5294C136.234 27.9559 139.606 31.3088 144.232 31.3088C147.356 31.3088 149.472 30.0441 150.859 28L154.741 31.3088C152.348 34.4559 148.742 36.3088 144.247 36.3088C136.453 36.3088 131.053 30.7794 131.053 23.5147V23.5441Z" fill="#04332D"/>
<path d="M165.615 35.8677V11.2059H170.709V20.9265H182.502V11.2059H187.596V35.8677H182.502V25.9412H170.709V35.8677H165.615Z" fill="#04332D"/>
<path d="M207.095 35.8676V25.6618L197.637 11.2206H203.709L209.664 20.5882L215.56 11.2206H221.632L212.218 25.6618V35.8676H207.095Z" fill="#04332D"/>
<path d="M235.848 16.6912V11H238.227C239.41 11 239.979 11.6029 239.979 12.4412C239.979 12.9265 239.716 13.3529 239.278 13.5735C240.008 13.7059 240.519 14.3088 240.519 15.0441C240.519 15.9853 239.789 16.6912 238.709 16.6912H235.834H235.848ZM236.564 13.4118H238.184C238.84 13.4118 239.293 13.0147 239.293 12.5C239.293 11.9853 238.913 11.6176 238.184 11.6176H236.564V13.4265V13.4118ZM236.564 16.0882H238.68C239.322 16.0882 239.818 15.6324 239.818 15.0294C239.818 14.4265 239.322 13.9706 238.68 13.9706H236.564V16.1029V16.0882Z" fill="#04332D"/>
<path d="M242.752 16.6912L244.912 11H245.715L247.875 16.6912H247.087L246.445 15.0147H244.153L243.511 16.6912H242.737H242.752ZM244.401 14.3676H246.226L245.321 11.9559L244.416 14.3676H244.401Z" fill="#04332D"/>
<path d="M250.458 16.6912V11H251.174V16.0294H254.647V16.6765H250.458V16.6912Z" fill="#04332D"/>
<path d="M257.304 16.6912V11H258.019V16.6912H257.304Z" fill="#04332D"/>
<path d="M235.848 26.4412V20.75H236.578L238.928 24.8235L241.278 20.75H242.008V26.4412H241.292V22.0735L239.249 25.6029H238.592L236.549 22.0735V26.4412H235.834H235.848Z" fill="#04332D"/>
<path d="M244.649 23.6029C244.649 21.9559 245.919 20.6617 247.627 20.6617C249.335 20.6617 250.604 21.9559 250.604 23.6029C250.604 25.25 249.335 26.5441 247.627 26.5441C245.919 26.5441 244.649 25.25 244.649 23.6029ZM249.889 23.6029C249.889 22.3382 248.897 21.3676 247.627 21.3676C246.357 21.3676 245.365 22.3529 245.365 23.6029C245.365 24.8529 246.357 25.8382 247.627 25.8382C248.897 25.8382 249.889 24.8529 249.889 23.6029Z" fill="#04332D"/>
<path d="M254.589 26.4412V21.4706H252.692V20.75H257.202V21.4706H255.319V26.4412H254.589Z" fill="#04332D"/>
<path d="M259.274 23.6029C259.274 21.9559 260.544 20.6617 262.252 20.6617C263.959 20.6617 265.229 21.9559 265.229 23.6029C265.229 25.25 263.959 26.5441 262.252 26.5441C260.544 26.5441 259.274 25.25 259.274 23.6029ZM264.514 23.6029C264.514 22.3382 263.521 21.3676 262.252 21.3676C260.982 21.3676 259.989 22.3529 259.989 23.6029C259.989 24.8529 260.982 25.8382 262.252 25.8382C263.521 25.8382 264.514 24.8529 264.514 23.6029Z" fill="#04332D"/>
<path d="M267.885 26.4412V20.75H270.542C271.724 20.75 272.395 21.5441 272.395 22.5147C272.395 23.2941 271.928 23.9559 271.111 24.1618L272.381 26.4412H271.593L270.352 24.2794H268.586V26.4412H267.871H267.885ZM268.601 23.6176H270.483C271.228 23.6176 271.68 23.1471 271.68 22.5147C271.68 21.8824 271.228 21.4118 270.483 21.4118H268.601V23.6176Z" fill="#04332D"/>
<path d="M235.848 36.2058V30.5146H238.505C239.687 30.5146 240.358 31.3088 240.358 32.2794C240.358 33.0588 239.891 33.7205 239.074 33.9264L240.344 36.2058H239.556L238.315 34.0441H236.549V36.2058H235.834H235.848ZM236.564 33.3823H238.446C239.191 33.3823 239.643 32.9117 239.643 32.2794C239.643 31.647 239.191 31.1764 238.446 31.1764H236.564V33.3823Z" fill="#04332D"/>
<path d="M243.175 36.2058V30.5146H247.364V31.1617H243.89V33.0146H246.459V33.6764H243.89V35.5441H247.364V36.1911H243.175V36.2058Z" fill="#04332D"/>
<path d="M250.079 36.2058V30.5146H250.809L254.151 35.0441V30.5146H254.866V36.2058H254.136L250.794 31.6764V36.2058H250.079Z" fill="#04332D"/>
<path d="M259.347 36.2058V31.2352H257.45V30.5146H261.96V31.2352H260.077V36.2058H259.347Z" fill="#04332D"/>
<path d="M263.696 36.2058L265.857 30.5146H266.659L268.819 36.2058H268.031L267.389 34.5294H265.098L264.455 36.2058H263.682H263.696ZM265.346 33.8823H267.17L266.265 31.4705L265.36 33.8823H265.346Z" fill="#04332D"/>
<path d="M271.403 36.2058V30.5146H272.118V35.5441H275.592V36.1911H271.403V36.2058Z" fill="#04332D"/>
</svg>
