<svg width="182" height="43" viewBox="0 0 182 43" fill="none" xmlns="http://www.w3.org/2000/svg">
<path d="M12.1017 34.7146C12.0085 34.7146 11.9059 34.6866 11.8314 34.6211C11.6263 34.4715 11.5797 34.1724 11.7288 33.9667C14.0873 30.7318 17.6855 25.758 17.9279 25.2812C18.2728 24.6361 18.4033 24.0565 18.2915 23.7012C18.2448 23.5423 18.1423 23.4207 17.9745 23.3366C17.3593 23.0187 16.4644 22.972 15.8025 23.8041C14.4415 25.4963 14.1712 25.8328 12.5025 25.8235C11.5051 25.8141 10.6661 25.4776 10.0788 24.8699C9.3797 24.1406 9.05343 23.0468 9.0814 21.607C9.13733 19.3819 10.2653 17.5775 11.9432 16.9978C13.2856 16.5397 15.3737 17.3063 16.3525 18.2974L16.5296 18.4843C16.9584 18.9237 17.3966 19.3725 17.6855 19.3445C17.872 19.3164 18.133 19.2416 18.3101 18.9892C18.5152 18.6994 18.5618 18.2506 18.4499 17.6896C18.2542 16.6893 16.8093 15.0251 15.5508 14.6231C14.3017 14.2211 12.2975 13.5853 9.82715 15.128C6.1077 17.4466 6.44329 21.5789 6.45262 21.7566C6.48058 22.009 6.28482 22.2427 6.03313 22.2614C5.77212 22.2801 5.54839 22.0931 5.52975 21.8407C5.5111 21.6444 5.11026 16.9604 9.34241 14.3333C12.1763 12.5663 14.5161 13.3142 15.7745 13.7162C17.3033 14.2024 19.0931 16.1096 19.3728 17.5027C19.5779 18.5404 19.3262 19.1762 19.0745 19.5221C18.7855 19.9241 18.3381 20.1859 17.816 20.2607C17.0703 20.3542 16.483 19.7652 15.8678 19.1294L15.6906 18.9518C14.8517 18.101 13.1458 17.5681 12.2509 17.8766C10.9365 18.3254 10.0602 19.8026 10.0136 21.6257C9.98562 22.8037 10.228 23.6825 10.75 24.2154C11.1602 24.6455 11.7568 24.8699 12.5119 24.8792C13.7051 24.8979 13.7517 24.8605 15.0381 23.2618C16.1008 21.9342 17.5084 22.037 18.4033 22.4952C18.7855 22.6915 19.0559 23.0094 19.177 23.4114C19.3728 24.0191 19.2237 24.8138 18.7482 25.7113C18.3847 26.4031 13.0805 33.6862 12.4746 34.5089C12.3814 34.6305 12.2415 34.6959 12.1017 34.6959V34.7146Z" fill="#FAAE2B"/>
<path d="M2.4975 34.7147C2.23649 34.7147 2.0314 34.509 2.0314 34.2472V11.9399C2.0314 11.8745 1.98479 10.0514 3.51359 9.62133C4.96781 9.20997 6.02119 10.3225 6.0678 10.3786C6.24491 10.5656 6.23559 10.8648 6.04915 11.0424C5.86271 11.2201 5.57374 11.2107 5.3873 11.0237C5.35001 10.9863 4.65086 10.2758 3.76528 10.5282C2.94495 10.7619 2.9636 11.8838 2.9636 11.9306V34.2472C2.9636 34.509 2.75851 34.7147 2.4975 34.7147Z" fill="#FAAE2B"/>
<path d="M2.94808 20.8123L2.0625 20.5224C3.69384 15.4832 5.67008 9.4436 5.74466 9.28466C6.16415 8.44323 7.09634 7.69529 8.46666 8.12536C9.97681 8.59282 10.0421 10.0887 9.86495 10.8086L7.98192 16.8482L7.08702 16.5677L8.96072 10.5562C8.97937 10.4627 9.21242 9.33141 8.187 9.01354C7.27346 8.73306 6.80736 9.22857 6.57431 9.69603C6.47177 9.96716 4.33705 16.4929 2.93876 20.8123H2.94808Z" fill="#FAAE2B"/>
<path d="M2.06102 20.8217C1.2873 18.5592 0.112741 15.1373 0.0568095 14.9877C-0.0830193 14.6138 0.0195218 13.4638 0.54155 12.8281C1.06358 12.1923 2.18221 12.0988 2.31272 12.0895L2.36865 13.0244C2.09831 13.0431 1.46442 13.1646 1.25934 13.4171C0.97968 13.7536 0.895783 14.5016 0.93307 14.6792C1.00765 14.8756 2.86271 20.2794 2.93728 20.5131L2.0517 20.8123L2.06102 20.8217Z" fill="#FAAE2B"/>
<g clip-path="url(#clip0_516_8293)">
<path d="M30.3477 22.4877C30.3477 17.5519 34.05 13.7925 39.388 13.7925C42.469 13.7925 44.9415 15.0584 46.5771 17.1939L43.9145 19.4699C42.9635 18.0634 41.5181 17.1939 39.3753 17.1939C36.1928 17.1939 33.8979 19.4699 33.8979 22.4877C33.8979 25.5054 36.2055 27.7815 39.3753 27.7815C41.5181 27.7815 42.9635 26.9248 43.9145 25.531L46.5771 27.7815C44.9415 29.9169 42.469 31.1828 39.388 31.1828C34.05 31.17 30.3477 27.4107 30.3477 22.4877Z" fill="#00332C"/>
<path d="M54.0195 30.8632V14.0994H57.5063V30.8632H54.0195Z" fill="#00332C"/>
<path d="M65.582 30.8632V14.0994H69.0942L77.1709 25.1346V14.0994H80.6577V30.8632H77.1709L69.0815 19.828V30.8632H65.5947H65.582Z" fill="#00332C"/>
<path d="M87.9375 22.4877C87.9375 17.5519 91.6398 13.7925 96.9778 13.7925C100.059 13.7925 102.531 15.0584 104.167 17.1939L101.504 19.4699C100.553 18.0634 99.1079 17.1939 96.9651 17.1939C93.7826 17.1939 91.4877 19.4699 91.4877 22.4877C91.4877 25.5054 93.7953 27.7815 96.9651 27.7815C99.1079 27.7815 100.553 26.9248 101.504 25.531L104.167 27.7815C102.531 29.9169 100.059 31.1828 96.9778 31.1828C91.6398 31.1828 87.9375 27.4234 87.9375 22.4877Z" fill="#00332C"/>
<path d="M111.609 30.8632V14.0994H115.096V20.7103H123.173V14.0994H126.66V30.8632H123.173V24.1116H115.096V30.8632H111.609Z" fill="#00332C"/>
<path d="M140.038 30.8632V23.9198L133.559 14.0994H137.717L141.8 20.4673L145.845 14.0994H150.004L143.55 23.9198V30.8632H140.038Z" fill="#00332C"/>
</g>
<defs>
<clipPath id="clip0_516_8293">
<rect width="119.654" height="17.3775" fill="white" transform="translate(30.3477 13.7925)"/>
</clipPath>
</defs>
</svg>
