<svg width="32" height="32" viewBox="0 0 32 32" fill="none" xmlns="http://www.w3.org/2000/svg">
<path d="M28 16C28.0001 18.8255 27.0032 21.5605 25.1849 23.7232C23.3665 25.8859 20.8433 27.3376 18.0597 27.8225C15.2761 28.3075 12.4106 27.7947 9.96801 26.3744C7.52539 24.9541 5.66229 22.7174 4.70686 20.0583C3.75142 17.3992 3.76495 14.4883 4.74505 11.8382C5.72516 9.18805 7.60897 6.96879 10.0647 5.57125C12.5204 4.17371 15.3905 3.68754 18.1695 4.19837C20.9485 4.70921 23.4581 6.18427 25.2563 8.36376C25.3455 8.46421 25.4136 8.58162 25.4565 8.70898C25.4994 8.83634 25.5162 8.97103 25.5058 9.10502C25.4955 9.239 25.4582 9.36953 25.3963 9.4888C25.3344 9.60807 25.2491 9.71364 25.1455 9.7992C25.0418 9.88475 24.922 9.94855 24.7932 9.98677C24.6643 10.025 24.5291 10.0368 24.3956 10.0216C24.2621 10.0064 24.133 9.96446 24.0161 9.89825C23.8991 9.83204 23.7967 9.74293 23.715 9.63626C22.2442 7.85291 20.201 6.63418 17.933 6.1874C15.665 5.74062 13.3122 6.09339 11.275 7.1857C9.23769 8.278 7.64178 10.0424 6.7587 12.1787C5.87562 14.3149 5.75992 16.6912 6.43128 18.9032C7.10265 21.1151 8.51961 23.0262 10.4411 24.3113C12.3626 25.5963 14.67 26.176 16.9707 25.9516C19.2714 25.7273 21.4233 24.7129 23.0604 23.0808C24.6975 21.4488 25.7186 19.3 25.95 17H16C15.7348 17 15.4804 16.8947 15.2929 16.7071C15.1054 16.5196 15 16.2652 15 16C15 15.7348 15.1054 15.4804 15.2929 15.2929C15.4804 15.1054 15.7348 15 16 15H27C27.2652 15 27.5196 15.1054 27.7071 15.2929C27.8946 15.4804 28 15.7348 28 16Z" fill="#A8A8A8"/>
</svg>
